<mxfile host="app.diagrams.net" modified="2022-04-08T08:33:57.480Z" agent="5.0 (Macintosh; Intel Mac OS X 10_13_4) AppleWebKit/537.36 (KHTML, like Gecko) Chrome/99.0.4844.84 Safari/537.36" etag="9xlw6l8gF9h-qAjEXaW9" version="16.1.0" type="github">
  <diagram id="7kBMv5rAlSymXgZU8982" name="Page-1">
    <mxGraphModel dx="946" dy="614" grid="1" gridSize="10" guides="1" tooltips="1" connect="1" arrows="1" fold="1" page="1" pageScale="1" pageWidth="827" pageHeight="1169" math="0" shadow="0">
      <root>
        <mxCell id="0" />
        <mxCell id="1" parent="0" />
        <mxCell id="jqYWww0PZvUbdfEIKurW-1" value="导入流程-同步" style="swimlane;childLayout=stackLayout;resizeParent=1;resizeParentMax=0;startSize=20;" vertex="1" parent="1">
          <mxGeometry x="80" y="40" width="750" height="970" as="geometry" />
        </mxCell>
        <mxCell id="jqYWww0PZvUbdfEIKurW-2" value="前端" style="swimlane;startSize=20;" vertex="1" parent="jqYWww0PZvUbdfEIKurW-1">
          <mxGeometry y="20" width="160" height="950" as="geometry" />
        </mxCell>
        <mxCell id="jqYWww0PZvUbdfEIKurW-6" value="选择文件" style="rounded=1;whiteSpace=wrap;html=1;" vertex="1" parent="jqYWww0PZvUbdfEIKurW-2">
          <mxGeometry x="30" y="130" width="100" height="50" as="geometry" />
        </mxCell>
        <mxCell id="jqYWww0PZvUbdfEIKurW-40" value="结束" style="ellipse;whiteSpace=wrap;html=1;rounded=1;" vertex="1" parent="jqYWww0PZvUbdfEIKurW-2">
          <mxGeometry x="50" y="587.5" width="60" height="55" as="geometry" />
        </mxCell>
        <mxCell id="jqYWww0PZvUbdfEIKurW-43" style="edgeStyle=orthogonalEdgeStyle;rounded=0;orthogonalLoop=1;jettySize=auto;html=1;exitX=0.5;exitY=1;exitDx=0;exitDy=0;" edge="1" parent="jqYWww0PZvUbdfEIKurW-2" source="jqYWww0PZvUbdfEIKurW-42" target="jqYWww0PZvUbdfEIKurW-6">
          <mxGeometry relative="1" as="geometry" />
        </mxCell>
        <mxCell id="jqYWww0PZvUbdfEIKurW-42" value="开始" style="ellipse;whiteSpace=wrap;html=1;rounded=1;" vertex="1" parent="jqYWww0PZvUbdfEIKurW-2">
          <mxGeometry x="50" y="40" width="60" height="55" as="geometry" />
        </mxCell>
        <mxCell id="jqYWww0PZvUbdfEIKurW-48" value="开始" style="ellipse;whiteSpace=wrap;html=1;rounded=1;" vertex="1" parent="jqYWww0PZvUbdfEIKurW-2">
          <mxGeometry x="50" y="690" width="60" height="55" as="geometry" />
        </mxCell>
        <mxCell id="jqYWww0PZvUbdfEIKurW-55" value="结束" style="ellipse;whiteSpace=wrap;html=1;rounded=1;" vertex="1" parent="jqYWww0PZvUbdfEIKurW-2">
          <mxGeometry x="50" y="787.5" width="60" height="55" as="geometry" />
        </mxCell>
        <mxCell id="jqYWww0PZvUbdfEIKurW-8" style="edgeStyle=orthogonalEdgeStyle;rounded=0;orthogonalLoop=1;jettySize=auto;html=1;exitX=1;exitY=0.5;exitDx=0;exitDy=0;" edge="1" parent="jqYWww0PZvUbdfEIKurW-1" source="jqYWww0PZvUbdfEIKurW-6" target="jqYWww0PZvUbdfEIKurW-7">
          <mxGeometry relative="1" as="geometry" />
        </mxCell>
        <mxCell id="jqYWww0PZvUbdfEIKurW-34" style="edgeStyle=orthogonalEdgeStyle;rounded=0;orthogonalLoop=1;jettySize=auto;html=1;exitX=1;exitY=0.5;exitDx=0;exitDy=0;entryX=0;entryY=0.5;entryDx=0;entryDy=0;" edge="1" parent="jqYWww0PZvUbdfEIKurW-1" source="jqYWww0PZvUbdfEIKurW-28" target="jqYWww0PZvUbdfEIKurW-33">
          <mxGeometry relative="1" as="geometry" />
        </mxCell>
        <mxCell id="jqYWww0PZvUbdfEIKurW-37" style="edgeStyle=orthogonalEdgeStyle;rounded=0;orthogonalLoop=1;jettySize=auto;html=1;exitX=0.5;exitY=1;exitDx=0;exitDy=0;entryX=1;entryY=0.5;entryDx=0;entryDy=0;" edge="1" parent="jqYWww0PZvUbdfEIKurW-1" source="jqYWww0PZvUbdfEIKurW-33" target="jqYWww0PZvUbdfEIKurW-36">
          <mxGeometry relative="1" as="geometry" />
        </mxCell>
        <mxCell id="jqYWww0PZvUbdfEIKurW-41" value="" style="edgeStyle=orthogonalEdgeStyle;rounded=0;orthogonalLoop=1;jettySize=auto;html=1;" edge="1" parent="jqYWww0PZvUbdfEIKurW-1" source="jqYWww0PZvUbdfEIKurW-36" target="jqYWww0PZvUbdfEIKurW-40">
          <mxGeometry relative="1" as="geometry" />
        </mxCell>
        <mxCell id="jqYWww0PZvUbdfEIKurW-4" value="后端" style="swimlane;startSize=20;" vertex="1" parent="jqYWww0PZvUbdfEIKurW-1">
          <mxGeometry x="160" y="20" width="360" height="950" as="geometry" />
        </mxCell>
        <mxCell id="jqYWww0PZvUbdfEIKurW-12" style="edgeStyle=orthogonalEdgeStyle;rounded=0;orthogonalLoop=1;jettySize=auto;html=1;exitX=0.5;exitY=1;exitDx=0;exitDy=0;entryX=0.5;entryY=0;entryDx=0;entryDy=0;" edge="1" parent="jqYWww0PZvUbdfEIKurW-4" source="jqYWww0PZvUbdfEIKurW-7" target="jqYWww0PZvUbdfEIKurW-11">
          <mxGeometry relative="1" as="geometry" />
        </mxCell>
        <mxCell id="jqYWww0PZvUbdfEIKurW-7" value="文件解析" style="rounded=1;whiteSpace=wrap;html=1;" vertex="1" parent="jqYWww0PZvUbdfEIKurW-4">
          <mxGeometry x="40" y="130" width="100" height="50" as="geometry" />
        </mxCell>
        <mxCell id="jqYWww0PZvUbdfEIKurW-16" style="edgeStyle=orthogonalEdgeStyle;rounded=0;orthogonalLoop=1;jettySize=auto;html=1;exitX=0.5;exitY=1;exitDx=0;exitDy=0;" edge="1" parent="jqYWww0PZvUbdfEIKurW-4" source="jqYWww0PZvUbdfEIKurW-11" target="jqYWww0PZvUbdfEIKurW-15">
          <mxGeometry relative="1" as="geometry" />
        </mxCell>
        <mxCell id="jqYWww0PZvUbdfEIKurW-46" style="edgeStyle=orthogonalEdgeStyle;rounded=0;orthogonalLoop=1;jettySize=auto;html=1;exitX=1;exitY=0.5;exitDx=0;exitDy=0;entryX=0.5;entryY=0;entryDx=0;entryDy=0;entryPerimeter=0;" edge="1" parent="jqYWww0PZvUbdfEIKurW-4" source="jqYWww0PZvUbdfEIKurW-11" target="jqYWww0PZvUbdfEIKurW-23">
          <mxGeometry relative="1" as="geometry" />
        </mxCell>
        <mxCell id="jqYWww0PZvUbdfEIKurW-11" value="总量判断&amp;amp;集合拆分" style="rounded=1;whiteSpace=wrap;html=1;" vertex="1" parent="jqYWww0PZvUbdfEIKurW-4">
          <mxGeometry x="40" y="230" width="100" height="50" as="geometry" />
        </mxCell>
        <mxCell id="jqYWww0PZvUbdfEIKurW-29" style="edgeStyle=orthogonalEdgeStyle;rounded=0;orthogonalLoop=1;jettySize=auto;html=1;exitX=0.5;exitY=1;exitDx=0;exitDy=0;" edge="1" parent="jqYWww0PZvUbdfEIKurW-4" source="jqYWww0PZvUbdfEIKurW-15" target="jqYWww0PZvUbdfEIKurW-28">
          <mxGeometry relative="1" as="geometry" />
        </mxCell>
        <mxCell id="jqYWww0PZvUbdfEIKurW-15" value="" style="rounded=1;whiteSpace=wrap;html=1;" vertex="1" parent="jqYWww0PZvUbdfEIKurW-4">
          <mxGeometry x="25" y="320" width="130" height="130" as="geometry" />
        </mxCell>
        <mxCell id="jqYWww0PZvUbdfEIKurW-17" value="线程池任务" style="text;html=1;align=center;verticalAlign=middle;resizable=0;points=[];autosize=1;strokeColor=none;fillColor=none;" vertex="1" parent="jqYWww0PZvUbdfEIKurW-4">
          <mxGeometry x="30" y="330" width="80" height="20" as="geometry" />
        </mxCell>
        <mxCell id="jqYWww0PZvUbdfEIKurW-18" value="" style="rounded=1;whiteSpace=wrap;html=1;" vertex="1" parent="jqYWww0PZvUbdfEIKurW-4">
          <mxGeometry x="37" y="360" width="30" height="70" as="geometry" />
        </mxCell>
        <mxCell id="jqYWww0PZvUbdfEIKurW-19" value="0～n" style="text;html=1;align=center;verticalAlign=middle;resizable=0;points=[];autosize=1;strokeColor=none;fillColor=none;" vertex="1" parent="jqYWww0PZvUbdfEIKurW-4">
          <mxGeometry x="32" y="375" width="40" height="20" as="geometry" />
        </mxCell>
        <mxCell id="jqYWww0PZvUbdfEIKurW-20" value="" style="rounded=1;whiteSpace=wrap;html=1;" vertex="1" parent="jqYWww0PZvUbdfEIKurW-4">
          <mxGeometry x="77" y="360" width="30" height="70" as="geometry" />
        </mxCell>
        <mxCell id="jqYWww0PZvUbdfEIKurW-25" style="edgeStyle=orthogonalEdgeStyle;rounded=0;orthogonalLoop=1;jettySize=auto;html=1;exitX=1;exitY=0.5;exitDx=0;exitDy=0;" edge="1" parent="jqYWww0PZvUbdfEIKurW-4" source="jqYWww0PZvUbdfEIKurW-21" target="jqYWww0PZvUbdfEIKurW-23">
          <mxGeometry relative="1" as="geometry" />
        </mxCell>
        <mxCell id="jqYWww0PZvUbdfEIKurW-21" value="" style="rounded=1;whiteSpace=wrap;html=1;" vertex="1" parent="jqYWww0PZvUbdfEIKurW-4">
          <mxGeometry x="113" y="360" width="30" height="70" as="geometry" />
        </mxCell>
        <mxCell id="jqYWww0PZvUbdfEIKurW-23" value="" style="shape=cylinder3;whiteSpace=wrap;html=1;boundedLbl=1;backgroundOutline=1;size=15;" vertex="1" parent="jqYWww0PZvUbdfEIKurW-4">
          <mxGeometry x="280" y="355" width="60" height="80" as="geometry" />
        </mxCell>
        <mxCell id="jqYWww0PZvUbdfEIKurW-26" value="batch入库&amp;amp;登记进度" style="text;html=1;align=center;verticalAlign=middle;resizable=0;points=[];autosize=1;strokeColor=none;fillColor=none;" vertex="1" parent="jqYWww0PZvUbdfEIKurW-4">
          <mxGeometry x="150" y="370" width="130" height="20" as="geometry" />
        </mxCell>
        <mxCell id="jqYWww0PZvUbdfEIKurW-39" style="edgeStyle=orthogonalEdgeStyle;rounded=0;orthogonalLoop=1;jettySize=auto;html=1;exitX=0.5;exitY=1;exitDx=0;exitDy=0;" edge="1" parent="jqYWww0PZvUbdfEIKurW-4" source="jqYWww0PZvUbdfEIKurW-28" target="jqYWww0PZvUbdfEIKurW-36">
          <mxGeometry relative="1" as="geometry" />
        </mxCell>
        <mxCell id="jqYWww0PZvUbdfEIKurW-28" value="" style="rounded=1;whiteSpace=wrap;html=1;" vertex="1" parent="jqYWww0PZvUbdfEIKurW-4">
          <mxGeometry x="35" y="500" width="110" height="50" as="geometry" />
        </mxCell>
        <mxCell id="jqYWww0PZvUbdfEIKurW-30" value="汇总数据" style="text;html=1;align=center;verticalAlign=middle;resizable=0;points=[];autosize=1;strokeColor=none;fillColor=none;" vertex="1" parent="jqYWww0PZvUbdfEIKurW-4">
          <mxGeometry x="60" y="515" width="60" height="20" as="geometry" />
        </mxCell>
        <mxCell id="jqYWww0PZvUbdfEIKurW-35" value="失败数据结果" style="text;html=1;align=center;verticalAlign=middle;resizable=0;points=[];autosize=1;strokeColor=none;fillColor=none;" vertex="1" parent="jqYWww0PZvUbdfEIKurW-4">
          <mxGeometry x="200" y="495" width="90" height="20" as="geometry" />
        </mxCell>
        <mxCell id="jqYWww0PZvUbdfEIKurW-36" value="返回封装" style="rounded=1;whiteSpace=wrap;html=1;" vertex="1" parent="jqYWww0PZvUbdfEIKurW-4">
          <mxGeometry x="35" y="590" width="110" height="50" as="geometry" />
        </mxCell>
        <mxCell id="jqYWww0PZvUbdfEIKurW-38" value="返回文件地址" style="text;html=1;align=center;verticalAlign=middle;resizable=0;points=[];autosize=1;strokeColor=none;fillColor=none;" vertex="1" parent="jqYWww0PZvUbdfEIKurW-4">
          <mxGeometry x="200" y="590" width="90" height="20" as="geometry" />
        </mxCell>
        <mxCell id="jqYWww0PZvUbdfEIKurW-45" value="总进度登记" style="text;html=1;align=center;verticalAlign=middle;resizable=0;points=[];autosize=1;strokeColor=none;fillColor=none;" vertex="1" parent="jqYWww0PZvUbdfEIKurW-4">
          <mxGeometry x="175" y="230" width="80" height="20" as="geometry" />
        </mxCell>
        <mxCell id="jqYWww0PZvUbdfEIKurW-54" style="edgeStyle=orthogonalEdgeStyle;rounded=0;orthogonalLoop=1;jettySize=auto;html=1;exitX=0.5;exitY=1;exitDx=0;exitDy=0;exitPerimeter=0;entryX=1;entryY=0.5;entryDx=0;entryDy=0;" edge="1" parent="jqYWww0PZvUbdfEIKurW-4" source="jqYWww0PZvUbdfEIKurW-47" target="jqYWww0PZvUbdfEIKurW-53">
          <mxGeometry relative="1" as="geometry" />
        </mxCell>
        <mxCell id="jqYWww0PZvUbdfEIKurW-47" value="" style="shape=cylinder3;whiteSpace=wrap;html=1;boundedLbl=1;backgroundOutline=1;size=15;" vertex="1" parent="jqYWww0PZvUbdfEIKurW-4">
          <mxGeometry x="260" y="677.5" width="60" height="80" as="geometry" />
        </mxCell>
        <mxCell id="jqYWww0PZvUbdfEIKurW-52" style="edgeStyle=orthogonalEdgeStyle;rounded=0;orthogonalLoop=1;jettySize=auto;html=1;exitX=1;exitY=0.5;exitDx=0;exitDy=0;" edge="1" parent="jqYWww0PZvUbdfEIKurW-4" source="jqYWww0PZvUbdfEIKurW-50" target="jqYWww0PZvUbdfEIKurW-47">
          <mxGeometry relative="1" as="geometry" />
        </mxCell>
        <mxCell id="jqYWww0PZvUbdfEIKurW-50" value="进度查询" style="rounded=1;whiteSpace=wrap;html=1;" vertex="1" parent="jqYWww0PZvUbdfEIKurW-4">
          <mxGeometry x="37" y="692.5" width="100" height="50" as="geometry" />
        </mxCell>
        <mxCell id="jqYWww0PZvUbdfEIKurW-53" value="返回封装" style="rounded=1;whiteSpace=wrap;html=1;" vertex="1" parent="jqYWww0PZvUbdfEIKurW-4">
          <mxGeometry x="37" y="790" width="100" height="50" as="geometry" />
        </mxCell>
        <mxCell id="jqYWww0PZvUbdfEIKurW-3" value="文件服务器" style="swimlane;startSize=20;" vertex="1" parent="jqYWww0PZvUbdfEIKurW-1">
          <mxGeometry x="520" y="20" width="230" height="950" as="geometry" />
        </mxCell>
        <mxCell id="jqYWww0PZvUbdfEIKurW-33" value="生成失败数据文件" style="rounded=1;whiteSpace=wrap;html=1;" vertex="1" parent="jqYWww0PZvUbdfEIKurW-3">
          <mxGeometry x="60" y="500" width="110" height="50" as="geometry" />
        </mxCell>
        <mxCell id="jqYWww0PZvUbdfEIKurW-51" style="edgeStyle=orthogonalEdgeStyle;rounded=0;orthogonalLoop=1;jettySize=auto;html=1;exitX=1;exitY=0.5;exitDx=0;exitDy=0;" edge="1" parent="jqYWww0PZvUbdfEIKurW-1" source="jqYWww0PZvUbdfEIKurW-48" target="jqYWww0PZvUbdfEIKurW-50">
          <mxGeometry relative="1" as="geometry" />
        </mxCell>
        <mxCell id="jqYWww0PZvUbdfEIKurW-56" style="edgeStyle=orthogonalEdgeStyle;rounded=0;orthogonalLoop=1;jettySize=auto;html=1;exitX=0;exitY=0.5;exitDx=0;exitDy=0;" edge="1" parent="jqYWww0PZvUbdfEIKurW-1" source="jqYWww0PZvUbdfEIKurW-53" target="jqYWww0PZvUbdfEIKurW-55">
          <mxGeometry relative="1" as="geometry" />
        </mxCell>
      </root>
    </mxGraphModel>
  </diagram>
</mxfile>
